<svg id="Logo_VasilyGuzov" class="Logo__svg" version="1.1" viewBox="0 0 162.82999 162.73719">

  <g class="Logo__webDev" >
    <path d="m 98.945666,123.71534 0.37588,-0.15221 1.547594,1.92188 q 0.10591,0.12632 0.25383,0.32414 0.14792,0.19782 0.16829,0.24164 -0.0704,-0.3151 -0.10537,-0.70966 l -0.24219,-2.4349 0.37588,-0.15221 2.19576,2.91679 -0.40273,0.1631 -1.3355,-1.80996 q -0.27963,-0.38138 -0.46846,-0.70581 0.10548,0.43368 0.14555,0.87302 l 0.21972,2.22527 -0.40272,0.16309 -1.42845,-1.75659 q -0.247905,-0.30311 -0.498516,-0.70925 0.08622,0.33474 0.152572,0.83893 l 0.302202,2.22317 -0.402726,0.16308 -0.450547,-3.6235 z" />
    <path d="m 95.299466,124.90123 1.880327,-0.5786 1.038524,3.37113 -1.880327,0.5786 -0.107261,-0.34818 1.488144,-0.45791 -0.334573,-1.08608 -1.398163,0.43023 -0.106552,-0.34588 1.398163,-0.43023 -0.382159,-1.24061 -1.488144,0.45791 -0.107972,-0.35049 z" />
    <path d="m 94.975634,128.63184 -0.971558,0.22371 q -0.684558,0.15762 -1.037523,0.0235 -0.352964,-0.13413 -0.45486,-0.57614 -0.07046,-0.30565 0.0552,-0.54502 0.123847,-0.2365 0.437284,-0.37057 l -0.0054,-0.0235 q -0.814252,0.0464 -0.973054,-0.6425 -0.106228,-0.46082 0.147035,-0.79148 0.250908,-0.33013 0.810779,-0.45904 l 1.199748,-0.27625 0.792375,3.43734 z m -0.73919,-1.37971 -0.658677,0.15167 q -0.423441,0.0975 -0.57893,0.27195 -0.154945,0.17681 -0.08232,0.49186 0.06666,0.28918 0.302944,0.36848 0.236818,0.0816 0.688489,-0.0224 l 0.588114,-0.13543 -0.25961,-1.12617 z m -0.07805,-0.33856 -0.296467,-1.28607 -0.717498,0.16522 q -0.416383,0.0959 -0.588892,0.30396 -0.174325,0.21098 -0.09519,0.55423 0.07371,0.31976 0.324821,0.4204 0.248757,0.10117 0.688662,0 l 0.684559,-0.15763 z" />
    <path d="m 86.447234,128.31066 q -0.0951,-0.86822 0.327206,-1.38045 0.420166,-0.50955 1.305711,-0.60643 l 0.971891,-0.10634 0.384075,3.5064 -1.075073,0.11763 q -0.818306,0.0895 -1.321531,-0.31414 -0.5032,-0.40367 -0.592254,-1.21671 z m 0.430375,-0.0617 q 0.07513,0.68593 0.458779,0.99588 0.381256,0.31022 1.060376,0.23592 l 0.592737,-0.0648 -0.306837,-2.80129 -0.496749,0.0543 q -0.729512,0.0798 -1.057534,0.47733 -0.32775,0.39993 -0.250784,1.10266 z" />
    <path d="m 83.12981,126.643 1.966476,-0.0639 0.114616,3.52555 -1.966476,0.0639 -0.01184,-0.36412 1.556247,-0.0505 -0.03692,-1.13577 -1.462188,0.0475 -0.01177,-0.36172 1.462188,-0.0475 -0.04218,-1.29731 -1.556248,0.0505 -0.01192,-0.36654 z" />
    <path d="m 79.830184,130.08949 -0.441474,-0.0162 1.400882,-3.47835 0.405285,0.0149 1.134586,3.57138 -0.434244,-0.0159 -0.726768,-2.31063 q -0.125479,-0.39813 -0.193854,-0.77244 -0.1012,0.3874 -0.255383,0.77044 l -0.88903,2.23688 z" />
    <path d="m 76.706194,126.26006 1.956465,0.20719 -0.371876,3.50775 -1.956464,-0.20718 0.03841,-0.36229 1.548461,0.16397 0.119805,-1.13005 -1.454772,-0.15407 0.03815,-0.35988 1.454772,0.15406 0.13685,-1.29077 -1.548461,-0.16397 0.03866,-0.36468 z" />
    <path d="m 75.562524,126.08712 -0.597334,3.4765 -0.404469,-0.0694 0.534409,-3.11024 -1.534617,-0.26338 0.06292,-0.36619 1.939037,0.33279 z" />
    <path d="m 69.267368,126.53183 q 0.206251,-0.82139 0.741143,-1.18723 0.532543,-0.36641 1.272462,-0.18083 0.756283,0.18969 1.052627,0.75406 0.293401,0.56613 0.08186,1.40862 -0.209774,0.83543 -0.737052,1.19073 -0.527858,0.35764 -1.286429,0.16735 -0.737558,-0.18498 -1.03447,-0.75696 -0.296912,-0.57197 -0.09007,-1.39564 z m 2.727852,0.68418 q 0.174523,-0.69502 -0.03001,-1.1294 -0.207462,-0.43262 -0.771746,-0.57415 -0.568968,-0.14272 -0.949223,0.1425 -0.380243,0.28522 -0.555359,0.98257 -0.173349,0.69034 0.02768,1.11886 0.198094,0.43028 0.764725,0.5724 0.568968,0.14272 0.956837,-0.14308 0.384928,-0.28405 0.557103,-0.9697 z" />
    <path d="m 65.670568,126.12418 q 0.171446,-0.50748 0.611771,-0.66446 0.437272,-0.15547 1.082254,0.0622 l 0.393394,0.13276 0.444058,-1.31436 0.388821,0.13121 -1.129074,3.34198 -0.866844,-0.29253 Q 65.34152,127.098 65.670556,126.12422 Z m 1.974634,-0.13577 -0.349936,-0.1181 q -0.516908,-0.17444 -0.80429,-0.0855 -0.287383,0.0889 -0.411724,0.45695 -0.111981,0.33146 0.05047,0.56708 0.162452,0.23562 0.622178,0.39076 l 0.434565,0.14666 0.458729,-1.35785 z" />
    <path d="m 63.62091,122.60357 1.817043,0.75403 -1.35342,3.25773 -1.817043,-0.75404 0.139779,-0.33645 1.438086,0.59674 0.436011,-1.04951 -1.351071,-0.56066 0.138852,-0.33424 1.351071,0.56067 0.498034,-1.1988 -1.438086,-0.59675 0.140707,-0.33869 z" />
    <path d="m 61.547767,123.24593 0.654561,-1.313 0.367314,0.18292 -1.573922,3.15718 -0.866449,-0.43148 q -0.581229,-0.28943 -0.746914,-0.64958 -0.167837,-0.36123 0.05501,-0.80824 0.312214,-0.62625 1.057275,-0.53018 l -0.150483,-1.84591 0.434306,0.21628 0.110324,1.69384 0.65901,0.32818 z m -0.157182,0.31527 -0.503448,-0.25069 q -0.388932,-0.19368 -0.64686,-0.13074 -0.259017,0.0651 -0.412973,0.37391 -0.156107,0.31312 -0.03919,0.54386 0.114759,0.22967 0.523137,0.43303 l 0.477516,0.23779 0.601809,-1.20716 z" />
  </g>

  <g class="Logo__Vas">
    <path d="m 33.838166,52.720212 -1.026819,1.739549 4.68444,5.666321 -7.237398,-1.341288 -1.02682,1.739549 10.157325,1.901127 1.026819,-1.73955 -6.577621,-7.965708 z" />
    <path d="m 40.113338,45.346706 -1.32734,1.372048 4.26457,9.533551 1.327341,-1.372048 -0.340716,-0.767417 c 0.87536,-0.185085 1.706792,-0.644629 2.376952,-1.337336 0.670134,-0.692695 1.101671,-1.53869 1.270113,-2.432553 l 0.77889,0.314495 1.327341,-1.372048 -9.677139,-3.938754 z m 5.02125,6.192435 c -0.515486,0.532847 -1.16603,0.832086 -1.833482,0.908835 l -2.138528,-4.747011 1.42585,0.578788 3.406169,1.384154 c -0.05428,0.669223 -0.344498,1.3424 -0.859984,1.875308 z" />
    <path d="m 50.958002,41.378922 -0.513212,0.102764 c -0.898275,0.163133 -1.329936,0.188 -1.664027,-0.302056 -0.260932,-0.382856 -0.163226,-0.897766 0.311781,-1.221143 0.413714,-0.281649 0.793908,-0.316274 1.325734,-0.09544 l 0.502088,-1.731891 c -0.996216,-0.375531 -1.884035,-0.19708 -2.788169,0.418384 -1.440311,0.980568 -1.73349,2.525323 -0.908917,3.735176 0.89762,1.317077 2.0813,1.407995 3.590209,1.12059 l 0.513212,-0.102763 c 0.954686,-0.179119 1.534741,-0.28255 1.910485,0.268764 0.313128,0.459433 0.113707,1.088423 -0.560501,1.547461 -0.704854,0.479852 -1.363555,0.435023 -1.998365,0.194658 l -0.537623,1.778461 c 1.021974,0.380411 2.265588,0.296065 3.552758,-0.580183 1.516943,-1.032723 2.123448,-2.611424 1.13188,-4.066237 -0.918497,-1.347712 -2.091683,-1.423313 -3.867444,-1.066434 z" />
    <path d="m 59.247854,43.192343 -4.459117,-8.605347 -1.695669,0.877681 4.459118,8.605346 1.695668,-0.87768 z" />
    <path d="m 61.735798,39.890386 -2.675445,-7.308529 -1.793313,0.655759 2.675446,7.308529 0.656131,1.792297 1.793312,-0.655759 4.387676,-1.604408 -0.65613,-1.792297 -4.387677,1.604408 z" />
    <path d="m 74.310492,28.635568 -1.697894,6.346847 -3.557702,-5.515491 -1.886136,0.29835 4.846109,7.487895 0.243455,1.53733 1.886136,-0.298349 -0.243455,-1.537331 2.27733,-8.614735 -1.867843,0.295459 z" />
    <path d="m 93.618542,33.937475 -1.976364,-0.421311 -0.379007,1.775991 1.885765,0.401991 -0.201109,0.942336 c -0.675462,0.500185 -1.576518,0.724924 -2.464955,0.535527 -1.65006,-0.351739 -2.709436,-1.960668 -2.357547,-3.609793 0.351939,-1.649126 1.975994,-2.685913 3.626054,-2.334223 0.68902,0.146877 1.291496,0.521618 1.714084,1.028523 l 1.471335,-1.03155 c -0.665117,-0.880694 -1.645981,-1.525595 -2.806462,-1.772902 -2.629219,-0.560468 -5.203065,1.107557 -5.763839,3.735176 -0.560785,2.627731 1.108186,5.200119 3.737294,5.760575 1.740658,0.371059 3.486879,-0.260846 4.600639,-1.482237 l 0.01547,-0.07249 0.247521,-1.159798 0.247521,-1.159799 0.0039,-0.01812 0.158566,-0.742996 -1.758828,-0.374938 z" />
    <path d="m 106.19731,34.187006 -2.42379,5.228778 c -0.49879,1.07602 -1.77885,1.545236 -2.8386,1.054526 -1.07663,-0.498505 -1.546112,-1.777844 -1.047337,-2.85379 l 2.423797,-5.228778 -1.63177,-0.755559 -2.423794,5.228778 c -0.919646,1.983892 -0.06192,4.321079 1.923094,5.240266 1.96821,0.911343 4.32353,0.06188 5.24323,-1.922003 l 2.4238,-5.228778 -1.64858,-0.763341 z" />
    <path d="m 108.86707,44.798233 7.57421,-1.982163 1.07527,-1.463707 -5.14102,-3.772235 -1.07527,1.463707 3.1235,2.291852 -7.55925,1.993156 -0.63638,0.866304 -0.43888,0.597453 0.71735,0.526361 0.0149,0.01097 5.26054,3.860065 1.07527,-1.463707 -3.99018,-2.927908 z" />
    <path d="m 123.7411,47.388657 c -1.77601,-2.016998 -4.83746,-2.212299 -6.8556,-0.437383 -2.0043,1.76265 -2.21355,4.834717 -0.43763,6.851715 1.76365,2.003163 4.83906,2.186234 6.84336,0.423473 2.01814,-1.775002 2.21355,-4.834717 0.44988,-6.837756 z m -5.97099,5.251384 c -1.13906,-1.29373 -1.01378,-3.255016 0.2667,-4.381239 1.29446,-1.138415 3.24289,-1.000963 4.38199,0.292705 1.12681,1.27977 1.01545,3.228827 -0.27895,4.367279 -1.2805,1.126174 -3.2429,1.000964 -4.36976,-0.278795 z" />
    <path d="m 133.59696,62.267845 -0.9509,-1.782167 -7.2798,1.044891 4.91558,-5.475714 -0.95089,-1.782168 -6.91481,7.675166 0.95091,1.782168 10.22975,-1.462225 z" />
  </g>

  <g class="Logo__VG" >
    <path id="v" d="m 45.052734,64.054688 13.25586,36.537112 8.097656,0 13.257812,-36.537112 -0.714843,0 -7.748047,0 -8.810547,24.333984 -8.878906,-24.333984 -8.458985,0 z m 1.425782,1 6.333984,0 9.580078,26.259765 9.509766,-26.259765 6.333984,0 -12.53125,34.537109 -6.695312,0 -12.53125,-34.537109 z" />
    <path id="g" d="m 101.72852,64.121094 c -10.10861,0 -18.279301,8.16777 -18.279301,18.271484 0,10.103341 8.170318,18.269532 18.279301,18.269532 6.69851,0 12.62796,-3.69155 15.76953,-9.064454 l 0.0684,-0.117187 0,-0.40625 0,-4.341797 0,-4.339844 0,-0.06836 0,-3.28125 -6.49219,0 -0.5918,0 -7.89648,0 0,7.646484 7.05859,0 0,2.787109 c -1.94192,2.134963 -4.79607,3.53711 -7.91601,3.53711 -5.908051,0 -10.69727,-4.722461 -10.69727,-10.623047 0,-5.900586 4.789219,-10.621094 10.69727,-10.621094 2.46469,0 4.80166,0.84305 6.61328,2.265625 l 0.36132,0.285156 5.14649,-5.53125 -0.39258,-0.339843 c -3.14372,-2.722928 -7.26573,-4.328125 -11.72851,-4.328125 z m 0,1 c 4.03602,0 7.74092,1.416024 10.65039,3.779297 l -3.83399,4.123047 c -1.92916,-1.389371 -4.29033,-2.253907 -6.8164,-2.253907 -6.442555,0 -11.69727,5.178068 -11.69727,11.621094 0,6.443026 5.254715,11.623047 11.69727,11.623047 3.47467,0 6.66184,-1.555115 8.79101,-3.966797 l 0.125,-0.140625 0,-4.216797 -7.05859,0 0,-5.646484 6.30664,0 0.58984,0 6.08399,0 0,2.28125 0,0.06836 0,4.339844 0,4.341797 0,0.105469 c -2.97991,5.019826 -8.5473,8.482421 -14.83789,8.482421 -9.571352,0 -17.279301,-7.704426 -17.279301,-17.269531 0,-9.565474 7.708318,-17.271484 17.279301,-17.271484 z" />
  </g>

  <g class="Logo__hexagon">
    <path class="Logo__hexagon--shape1" d="m 145.45,995.96 -658.12,-4e-5 -329.06,-569.95 329.06,-569.95 658.12,3e-5 329.06,569.95 z" />
    <path class="Logo__hexagon--shape2" d="m 145.45,995.96 -658.12,-4e-5 -329.06,-569.95 329.06,-569.95 658.12,3e-5 329.06,569.95 z"  />
  </g>
</svg>
